# xmcd CD database file
#
# Track frame offsets:
#	150
#	15959
#	31564
#	42933
#	52380
#	62698
#	83298
#	99748
#	110918
#	120110
#	133650
#	145521
#	156524
#
# Disc length: 2282 seconds
#
# Revision: 0
# Processed by: cddbd v1.5.2PL0 Copyright (c) Steve Scherf et al.
# Submitted via: CDex 1.70beta2
#
DISCID=a008e80d
DTITLE=Jenny and Josie - Cdn. - Now and Then
DYEAR=1900
DGENRE=Country
TTITLE0=Now and Then
TTITLE1=Mary On the Wild Moor
TTITLE2=When Robins Come Home
TTITLE3=Who Were You Thinkin' Of
TTITLE4=Salt Water Blues
TTITLE5=Daddy
TTITLE6=The Isle of Nfld.
TTITLE7=Me Cock's Me Own
TTITLE8=I Wish I Was In Newfie
TTITLE9=My Old Homestead
TTITLE10=I Already Know
TTITLE11=Cicinnati Waltz
TTITLE12=New Patches
EXTD=
EXTT0=
EXTT1=
EXTT2=
EXTT3=
EXTT4=
EXTT5=
EXTT6=
EXTT7=
EXTT8=
EXTT9=
EXTT10=
EXTT11=
EXTT12=
PLAYORDER=
